#!OML:ASF H:\Terrain\Patient Classification 1\Takeo\Monday\TakeoMonday.ASF
:FULLY-SPECIFIED
:DEGREES
142
root 8.88286 18.526 19.6301 -0.659734 -8.0728 -4.91344
lowerback 4.09469 2.66459 6.33622
upperback 0.439868 3.84985 0.993912
thorax -1.49226 1.88537 -2.71073
lowerneck -13.7933 0.328727 -1.98908
upperneck -1.81573 0.715192 1.04293
head 1.76701 0.394837 0.71689
rclavicle -4.88346e-014 -1.46355e-014
rhumerus -30.4635 29.3925 -91.235
rradius 110.003
rwrist -10.2623
rhand -37.9269 51.9312
rfingers 7.12502
rthumb -10.9688 22.2378
lclavicle -4.88346e-014 -1.46355e-014
lhumerus -75.1379 -4.36743 90.2423
lradius 94.3642
lwrist 29.3515
lhand -30.2089 -0.219324
lfingers 7.12502
lthumb -3.5192 29.7314
rfemur 16.6901 10.2133 31.2134
rtibia 40.5748
rfoot 10.418 -11.784
rtoes -18.7626
lfemur -26.1765 -3.33492 -16.8759
ltibia 31.6655
lfoot -21.1543 16.649
ltoes -30.0911
143
root 8.88216 18.4518 20.0422 -1.23567 -8.22746 -5.8159
lowerback 4.76968 2.59643 7.09042
upperback 0.552893 3.84994 1.23669
thorax -1.72077 1.87513 -2.91219
lowerneck -13.7318 0.25832 -2.09661
upperneck -1.82211 0.629928 1.31351
head 1.7558 0.360736 0.81719
rclavicle 4.47452e-014 1.85367e-014
rhumerus -32.113 29.3536 -91.9767
rradius 109.156
rwrist -10.5203
rhand -37.9555 49.5592
rfingers 7.12502
rthumb -10.9964 19.8672
lclavicle 4.47452e-014 1.85367e-014
lhumerus -74.4083 -4.24351 90.2053
lradius 94.7815
lwrist 29.3031
lhand -30.5595 -1.99011
lfingers 7.12502
lthumb -3.8578 27.9547
rfemur 16.5391 9.92795 32.1603
rtibia 43.1594
rfoot 10.2882 -11.822
rtoes -22.7855
lfemur -25.0243 -3.14341 -16.0881
ltibia 31.3118
lfoot -22.04 16.6237
ltoes -27.8633
144
root 8.89159 18.3895 20.4442 -1.56394 -7.91563 -4.83194
lowerback 4.96454 2.47909 6.11397
upperback 0.629033 3.64767 0.851482
thorax -1.80659 1.77978 -2.76688
lowerneck -13.7281 0.195902 -2.15698
upperneck -1.9749 0.54964 1.61085
head 1.70643 0.330349 0.917647
rclavicle -3.30169e-015 -1.18774e-014
rhumerus -33.6258 29.0682 -92.6795
rradius 108.287
rwrist -10.6213
rhand -38.2441 48.7667
rfingers 7.12502
rthumb -11.2747 19.0897
lclavicle -3.30169e-015 -1.18774e-014
lhumerus -73.3489 -4.13013 90.0586
lradius 95.2115
lwrist 28.93
lhand -30.9114 -2.72284
lfingers 7.12502
lthumb -4.19755 27.2156
rfemur 15.4336 9.4054 30.7314
rtibia 46.2018
rfoot 9.72974 -11.9607
rtoes -25.0733
lfemur -24.1966 -3.26374 -17.4499
ltibia 30.863
lfoot -22.5215 15.8608
ltoes -25.2844
145
root 8.89332 18.3205 20.8144 -1.69406 -7.7137 -4.01474
lowerback 5.36214 2.40514 5.19081
upperback 0.627919 3.5176 0.495608
thorax -2.07482 1.71351 -2.63469
lowerneck -13.7123 0.181753 -1.96594
upperneck -2.19598 0.502782 1.62519
head 1.63068 0.307103 0.884524
rclavicle 2.91344e-015 -7.35503e-015
rhumerus -34.9725 28.649 -93.4518
rradius 107.107
rwrist -10.4979
rhand -38.1754 48.6788
rfingers 7.12502
rthumb -11.2084 18.9982
lclavicle 2.91344e-015 -7.35503e-015
lhumerus -71.982 -4.13499 89.7455
lradius 95.7473
lwrist 28.9326
lhand -30.8501 -2.1445
lfingers 7.12502
lthumb -4.13838 27.7951
rfemur 13.5555 9.09642 29.4945
rtibia 49.5616
rfoot 9.26278 -12.6432
rtoes -24.8771
lfemur -23.6185 -2.92312 -18.6353
ltibia 30.5736
lfoot -21.7764 14.8466
ltoes -24.6235
146
root 8.892 18.2487 21.1955 -1.95198 -7.74754 -3.86947
lowerback 5.77659 2.35763 4.91399
upperback 0.782144 3.45395 0.361125
thorax -2.16022 1.68395 -2.63193
lowerneck -13.7129 0.197113 -1.71278
upperneck -2.44686 0.48857 1.53394
head 1.54704 0.296497 0.808672
rclavicle -2.53078e-014 1.39149e-014
rhumerus -36.1294 28.3316 -94.1677
rradius 105.764
rwrist -10.496
rhand -38.4914 49.2697
rfingers 7.12502
rthumb -11.5132 19.6059
lclavicle -2.53078e-014 1.39149e-014
lhumerus -70.2914 -4.17025 89.4079
lradius 96.142
lwrist 29.0812
lhand -30.8049 -1.72415
lfingers 7.12502
lthumb -4.09477 28.2162
rfemur 11.508 9.00305 29.0506
rtibia 53.0528
rfoot 8.84542 -13.5417
rtoes -25.3819
lfemur -22.6073 -2.43904 -19.0936
ltibia 30.4354
lfoot -20.7243 13.7663
ltoes -25.3801
